HIERARCHY
ROOT Hips
{
	OFFSET 0.000000 8.830580 0.000000
	CHANNELS 6 Xposition Yposition Zposition Zrotation Yrotation Xrotation 
	JOINT Spine
	{
		OFFSET 0.000000 0.010000 0.000000
		CHANNELS 3 Zrotation Yrotation Xrotation
		JOINT Spine1
		{
			OFFSET 0.000000 2.459130 0.000000
			CHANNELS 3 Zrotation Yrotation Xrotation
			JOINT Neck
			{
				OFFSET 0.000000 2.484630 0.000000
				CHANNELS 3 Zrotation Yrotation Xrotation
				JOINT Head_virtual
				{
					OFFSET 0.000000 0.000000 0.000000
					CHANNELS 3 Zrotation Yrotation Xrotation
					JOINT Head
					{
						OFFSET 0.000000 0.927525 0.000000
						CHANNELS 3 Zrotation Yrotation Xrotation
						End Site
						{
							OFFSET 0.000000 0.000000 0.000000
						}
					}
				}
				JOINT LeftUpArm_virtual
				{
					OFFSET 0.000000 0.000000 0.000000
					CHANNELS 3 Zrotation Yrotation Xrotation
					JOINT LeftUpArm
					{
						OFFSET 1.248820 0.000000 0.000000
						CHANNELS 3 Zrotation Yrotation Xrotation
						JOINT LeftForeArm
						{
							OFFSET 2.597580 0.000000 0.000000
							CHANNELS 3 Zrotation Yrotation Xrotation
							JOINT LeftHand
							{
								OFFSET 2.455420 0.000000 0.000000
								CHANNELS 3 Zrotation Yrotation Xrotation
								End Site
								{
									OFFSET 0.000000 0.000000 0.000000
								}
							}
						}
					}
				}
				JOINT RightUpArm_virtual
				{
					OFFSET -0.000000 -0.000000 -0.000000
					CHANNELS 3 Zrotation Yrotation Xrotation
					JOINT RightUpArm
					{
						OFFSET -1.248820 -0.000000 -0.000000
						CHANNELS 3 Zrotation Yrotation Xrotation
						JOINT RightForeArm
						{
							OFFSET -2.597580 -0.000000 -0.000000
							CHANNELS 3 Zrotation Yrotation Xrotation
							JOINT RightHand
							{
								OFFSET -2.455420 -0.000000 -0.000000
								CHANNELS 3 Zrotation Yrotation Xrotation
								End Site
								{
									OFFSET 0.000000 0.000000 0.000000
								}
							}
						}
					}
				}
			}
		}
	}
	JOINT LeftUpLeg
	{
		OFFSET 1.271939 0.000000 0.000000
		CHANNELS 3 Zrotation Yrotation Xrotation
		JOINT LeftLowLeg
		{
			OFFSET 0.000000 -4.342910 0.000000
			CHANNELS 3 Zrotation Yrotation Xrotation
			JOINT LeftFoot
			{
				OFFSET 0.000000 -4.487670 0.000000
				CHANNELS 3 Zrotation Yrotation Xrotation
				JOINT LeftToeBase
				{
					OFFSET 0.000000 0.000000 1.515070
					CHANNELS 3 Zrotation Yrotation Xrotation
					End Site
					{
						OFFSET 0.000000 0.000000 0.000000
					}
				}
			}
		}
	}
	JOINT RightUpLeg
	{
		OFFSET -1.271939 0.000000 0.000000
		CHANNELS 3 Zrotation Yrotation Xrotation
		JOINT RightLowLeg
		{
			OFFSET 0.000000 -4.342910 0.000000
			CHANNELS 3 Zrotation Yrotation Xrotation
			JOINT RightFoot
			{
				OFFSET 0.000000 -4.487670 0.000000
				CHANNELS 3 Zrotation Yrotation Xrotation
				JOINT RightToeBase
				{
					OFFSET 0.000000 0.000000 1.515070
					CHANNELS 3 Zrotation Yrotation Xrotation
					End Site
					{
						OFFSET 0.000000 0.000000 0.000000
					}
				}
			}
		}
	}
}
MOTION
Frames: 10
Frame Time: 0.041667
-12.489136 8.871360 38.298834 179.059081 5.750990 177.668450 2.338715 0.074792 -19.097316 -5.835663 4.173206 21.410655 0.000000 0.000000 0.000000 30.635778 -6.368246 18.409444 -2.477589 -17.212795 -78.134829 -24.918501 1.435860 8.256850 -47.437302 -8.682990 18.951200 0.000000 -19.264700 0.000000 7.572270 17.300600 -10.505700 29.815599 -5.644660 1.594800 49.063499 2.001190 15.504900 0.000000 25.573299 0.000000 2.427510 -9.467060 -19.606701 -4.990501 -11.330447 6.071748 0.000000 0.000000 14.783700 -9.458632 13.734929 -7.903794 0.000000 0.000000 -21.945790 5.294159 22.249453 3.766369 0.000000 0.000000 20.777399 26.175000 -7.017870 -13.934882 0.000000 0.000000 -18.693830 
-12.492401 8.872661 38.295433 179.080871 5.593178 177.800606 2.358423 0.002407 -19.168301 -5.848350 4.096528 21.392533 0.000000 0.000000 0.000000 30.628763 -6.224144 18.337439 -2.143938 -17.132474 -78.377396 -24.948799 1.478850 8.267950 -47.303398 -8.822960 19.411800 0.000000 -19.364700 0.000000 8.142400 17.123800 -9.756310 29.849300 -5.676840 1.431800 48.997601 1.908700 15.697700 0.000000 25.650700 0.000000 2.292940 -9.481460 -19.171801 -4.985699 -11.600268 5.941064 0.000000 0.000000 14.816000 -9.489680 13.778348 -7.873232 0.000000 0.000000 -22.023400 5.217456 22.029269 3.710331 0.000000 0.000000 20.657900 26.124629 -6.980651 -13.844750 0.000000 0.000000 -18.672930 
-12.494623 8.871739 38.293761 179.066359 5.595337 177.768190 2.358063 0.018953 -19.029700 -5.846228 4.080847 21.244062 0.000000 0.000000 0.000000 30.797499 -6.535854 18.121235 -2.261957 -17.058206 -78.251687 -24.905899 1.360750 8.166670 -47.272400 -8.690090 19.921700 0.000000 -19.447500 0.000000 8.535050 16.878201 -9.427050 29.800800 -5.457010 1.268320 48.982700 1.482250 15.760600 0.000000 25.814400 0.000000 2.360050 -9.577250 -18.962700 -5.012613 -11.528667 6.011772 0.000000 0.000000 14.745100 -9.449209 13.749654 -7.868140 0.000000 0.000000 -22.001740 5.248045 22.159957 3.802362 0.000000 0.000000 20.588800 26.056517 -7.174747 -13.958485 0.000000 0.000000 -18.573530 
-12.498009 8.872251 38.292610 179.080948 5.514337 177.790108 2.418958 0.063452 -18.873513 -5.975567 3.986286 21.044624 0.000000 0.000000 0.000000 30.893815 -6.589412 18.088441 -2.271895 -16.977232 -78.338222 -24.861099 1.263650 8.159020 -47.157101 -8.591980 20.403000 0.000000 -19.582001 0.000000 8.675240 16.664000 -8.940280 29.818899 -5.681650 1.392250 48.975101 1.793140 16.051901 0.000000 25.594601 0.000000 2.399870 -9.390900 -18.911600 -5.008573 -11.539181 6.018184 0.000000 0.000000 14.674400 -9.409820 13.718152 -7.842152 0.000000 0.000000 -21.951100 5.208007 21.918196 3.817245 0.000000 0.000000 20.501801 26.262765 -6.946827 -13.890798 0.000000 0.000000 -18.649760 
-12.499675 8.873056 38.290908 179.072500 5.423653 177.953911 2.388832 -0.016458 -19.016501 -5.905009 3.983286 21.088766 0.000000 0.000000 0.000000 30.853522 -6.559145 17.867938 -2.081378 -16.916402 -78.271433 -24.878300 1.173050 8.199610 -47.032101 -8.631140 20.893801 0.000000 -19.729900 0.000000 8.756000 16.500299 -8.283910 29.767900 -5.578140 1.543320 48.962002 1.842480 15.982400 0.000000 25.586901 0.000000 2.425070 -9.379480 -18.976700 -4.994548 -11.633588 5.868730 0.000000 0.000000 14.642200 -9.399843 13.711004 -7.801643 0.000000 0.000000 -21.926910 5.156520 21.989036 3.669859 0.000000 0.000000 20.503500 26.273297 -7.071131 -13.920285 0.000000 0.000000 -18.686490 
-12.503638 8.872381 38.292326 179.049278 5.407067 177.952486 2.396026 -0.018192 -18.863502 -5.900725 3.965365 21.058704 0.000000 0.000000 0.000000 30.757823 -6.370670 17.731095 -2.080743 -16.825347 -78.377049 -24.865400 1.219440 8.274160 -46.951900 -8.870360 21.395500 0.000000 -19.753700 0.000000 8.667380 16.178900 -8.587340 29.729700 -5.500770 1.596990 49.018700 1.742200 15.664300 0.000000 25.643801 0.000000 2.324990 -9.172620 -18.282200 -5.038697 -11.663155 5.853568 0.000000 0.000000 14.652800 -9.290140 13.781420 -7.789170 0.000000 0.000000 -21.892230 5.150374 22.122835 3.749538 0.000000 0.000000 20.367599 26.368806 -7.177182 -14.033081 0.000000 0.000000 -18.585370 
-12.508052 8.873474 38.293822 179.064130 5.415186 178.007468 2.449766 0.074451 -18.757617 -5.948354 3.953323 20.907271 0.000000 0.000000 0.000000 30.905541 -6.563421 17.659115 -2.018486 -16.789593 -78.466536 -24.908300 1.047450 8.181530 -46.771599 -8.676520 22.005699 0.000000 -19.885000 0.000000 8.502930 16.085199 -7.908100 29.760900 -5.547840 1.315330 48.969501 1.597690 16.004999 0.000000 25.477699 0.000000 2.445470 -9.284440 -18.375900 -5.054016 -11.739914 5.778610 0.000000 0.000000 14.676100 -9.151878 13.890087 -7.743565 0.000000 0.000000 -21.917630 5.076639 21.955289 3.638183 0.000000 0.000000 20.399200 26.299163 -7.109759 -13.971888 0.000000 0.000000 -18.516890 
-12.509743 8.872924 38.295854 179.048942 5.332823 178.087863 2.400170 -0.026740 -18.697401 -5.867417 3.925782 20.853504 0.000000 0.000000 0.000000 30.908151 -6.627051 17.436998 -2.305575 -16.697112 -78.367188 -24.950800 1.067010 8.337900 -46.698502 -8.878020 22.229700 0.000000 -19.907000 0.000000 8.573690 15.977900 -7.560480 29.742901 -5.705920 1.570930 48.935600 1.960900 15.994500 0.000000 25.457001 0.000000 2.418490 -9.301180 -18.439400 -5.062914 -11.761045 5.662545 0.000000 0.000000 14.680600 -9.279798 13.838476 -7.791499 0.000000 0.000000 -21.855890 5.085361 22.262423 3.571363 0.000000 0.000000 20.423401 26.247315 -7.424129 -14.123829 0.000000 0.000000 -18.439310 
-12.514185 8.872553 38.298438 179.044116 5.302009 178.181823 2.440881 0.019393 -18.631902 -5.923709 3.907506 20.838489 0.000000 0.000000 0.000000 30.830835 -6.462441 17.184140 -2.125992 -16.564373 -78.412591 -24.931601 1.006050 8.327090 -46.577202 -8.912570 22.890100 0.000000 -20.070000 0.000000 8.642090 16.012600 -7.540850 29.714600 -5.473490 1.386340 48.964600 1.637420 16.034500 0.000000 25.503599 0.000000 2.418040 -9.424300 -18.612801 -5.068657 -11.847670 5.525280 0.000000 0.000000 14.737900 -9.306008 13.820389 -7.786358 0.000000 0.000000 -21.928180 4.961459 22.020934 3.445965 0.000000 0.000000 20.395901 26.446170 -7.092086 -14.038786 0.000000 0.000000 -18.584900 
-12.515667 8.872775 38.300828 179.025367 5.266688 178.278894 2.466939 0.091359 -18.597324 -5.959930 3.931677 20.838318 0.000000 0.000000 0.000000 30.722958 -6.293910 16.956134 -1.988549 -16.478480 -78.537342 -24.871799 0.846902 8.389160 -46.567699 -8.965850 23.074100 0.000000 -20.041800 0.000000 8.660520 15.877000 -7.401450 29.710300 -5.375460 1.289040 48.982498 1.401940 15.952100 0.000000 25.594801 0.000000 2.517040 -9.325980 -18.649799 -5.070665 -11.912729 5.383945 0.000000 0.000000 14.786800 -9.309354 13.834626 -7.753347 0.000000 0.000000 -21.983320 4.854063 21.815875 3.310010 0.000000 0.000000 20.402500 26.511087 -6.938219 -14.010470 0.000000 0.000000 -18.518190 
